<svg xmlns="http://www.w3.org/2000/svg" viewBox="0 0 64 64" fill="none">
	<rect width="64" height="64" rx="16" fill="#F5F1E8" />
	<path d="M17 19.5C17 17.567 18.567 16 20.5 16H30C33.066 16 35.88 17.046 38 18.8V45.2C35.679 43.809 32.954 43 30.04 43H20.5C18.567 43 17 41.433 17 39.5V19.5Z" fill="#FFFDFC" stroke="#5C554B" stroke-width="2" />
	<path d="M47 19.5C47 17.567 45.433 16 43.5 16H34C30.934 16 28.12 17.046 26 18.8V45.2C28.321 43.809 31.046 43 33.96 43H43.5C45.433 43 47 41.433 47 39.5V19.5Z" fill="#FFFDFC" stroke="#5C554B" stroke-width="2" />
	<path d="M32 19V44" stroke="#5C554B" stroke-width="2.5" stroke-linecap="round" />
	<path d="M22 24.5H28" stroke="#B8B0A2" stroke-width="2" stroke-linecap="round" />
	<path d="M22 29.5H28" stroke="#B8B0A2" stroke-width="2" stroke-linecap="round" />
	<path d="M36 24.5H42" stroke="#B8B0A2" stroke-width="2" stroke-linecap="round" />
	<path d="M36 29.5H42" stroke="#B8B0A2" stroke-width="2" stroke-linecap="round" />
	<path d="M40 16V27L37 24.8L34 27V16" fill="#8C7A5B" />
</svg>